<svg xmlns="http://www.w3.org/2000/svg" width="64" height="64" viewBox="0 0 64 64">
  <defs><clipPath id="sq"><path d="M 16.64 0 H 47.36 Q 64 0 64 16.64 V 47.36 Q 64 64 47.36 64 H 16.64 Q 0 64 0 47.36 V 16.64 Q 0 0 16.64 0 Z"></path></clipPath></defs>
  <g clip-path="url(#sq)">
    <rect width="64" height="64" fill="#FFFFFF"></rect>
    <rect y="0" width="64" height="4.92" fill="#B22234"></rect><rect y="9.84" width="64" height="4.92" fill="#B22234"></rect><rect y="19.68" width="64" height="4.92" fill="#B22234"></rect><rect y="29.52" width="64" height="4.92" fill="#B22234"></rect><rect y="39.36" width="64" height="4.92" fill="#B22234"></rect><rect y="49.2" width="64" height="4.92" fill="#B22234"></rect><rect y="59.04" width="64" height="4.92" fill="#B22234"></rect>
    <rect width="29.5" height="34.4" fill="#3C3B6E"></rect>
    <g fill="#FFFFFF">
      <circle cx="4.5" cy="5.7" r="1"></circle><circle cx="11.5" cy="5.7" r="1"></circle><circle cx="18.5" cy="5.7" r="1"></circle><circle cx="25.5" cy="5.7" r="1"></circle><circle cx="4.5" cy="12.5" r="1"></circle><circle cx="11.5" cy="12.5" r="1"></circle><circle cx="18.5" cy="12.5" r="1"></circle><circle cx="25.5" cy="12.5" r="1"></circle><circle cx="4.5" cy="19.3" r="1"></circle><circle cx="11.5" cy="19.3" r="1"></circle><circle cx="18.5" cy="19.3" r="1"></circle><circle cx="25.5" cy="19.3" r="1"></circle><circle cx="4.5" cy="26" r="1"></circle><circle cx="11.5" cy="26" r="1"></circle><circle cx="18.5" cy="26" r="1"></circle><circle cx="25.5" cy="26" r="1"></circle>
    </g>
  </g>
</svg>