<svg xmlns="http://www.w3.org/2000/svg" viewBox="0 0 32 32" width="32" height="32" fill="none" stroke="#EA580C" stroke-width="2.2" stroke-linejoin="round" stroke-linecap="round"><g fill="#FB923C" fill-opacity="0.25" stroke="none"><path d="M6 6 Q6 4 8 4 L24 4 Q26 4 26 6 L26 26 Q26 28 24 28 L8 28 Q6 28 6 26 Z"></path></g><path d="M6 6 Q6 4 8 4 L24 4 Q26 4 26 6 L26 26 Q26 28 24 28 L8 28 Q6 28 6 26 Z"></path><path d="M11 11 L21 11"></path><path d="M11 16 L21 16"></path><path d="M11 21 L17 21"></path></svg>