<svg xmlns="http://www.w3.org/2000/svg" viewBox="0 0 452.7 87.7" width="452.7" height="87.7">
  
  <!-- Mark -->
  <polygon points="27.650000000000002,16.25 4.8500000000000005,80.85000000000001 50.45,80.85000000000001" stroke="#00E676" stroke-width="5.70" stroke-linejoin="round" fill="none" opacity="1"/>
  <polygon points="50.45,4.85 20.05,80.85000000000001 80.85000000000001,80.85000000000001" stroke="#00E676" stroke-width="5.70" stroke-linejoin="round" fill="none" opacity="1"/>
  <rect x="16.25" y="65.65" width="53.20" height="3.80" rx="1.90" fill="#00E676" opacity="0.35"/>
  <!-- Wordmark -->
  <path d="M2.0 70.3 30.3 0.0H41.400000000000006L69.60000000000001 70.3H55.1L50.2 57.199999999999996H21.200000000000003L16.2 70.3ZM45.800000000000004 45.8 35.800000000000004 19.199999999999996 25.6 45.8Z M77.3 70.3V-2.0H90.4V70.3Z M122.2 71.3Q115.60000000000001 71.3 110.30000000000001 68.0Q105.0 64.7 102.0 59.0Q99.0 53.3 99.0 46.199999999999996Q99.0 39.0 102.0 33.3Q105.0 27.599999999999994 110.30000000000001 24.299999999999994Q115.60000000000001 20.999999999999993 122.2 20.999999999999993Q127.4 20.999999999999993 131.5 23.099999999999994Q134.2 24.499999999999993 136.2 26.599999999999994V21.999999999999993H149.2V70.3H136.2V65.6Q134.2 67.7 131.5 69.1Q127.4 71.3 122.2 71.3ZM124.60000000000001 59.199999999999996Q130.1 59.199999999999996 133.5 55.55Q136.9 51.89999999999999 136.9 46.099999999999994Q136.9 42.3 135.35000000000002 39.349999999999994Q133.8 36.4 131.05 34.75Q128.3 33.099999999999994 124.60000000000001 33.099999999999994Q121.0 33.099999999999994 118.25 34.75Q115.5 36.4 113.95 39.349999999999994Q112.4 42.3 112.4 46.099999999999994Q112.4 50.0 113.95 52.95Q115.5 55.9 118.25 57.55Q121.0 59.199999999999996 124.60000000000001 59.199999999999996Z M160.8 70.3V21.999999999999993H173.9V26.199999999999996Q175.6 24.499999999999993 177.9 23.199999999999996Q182.1 20.999999999999993 187.4 20.999999999999993Q192.4 20.999999999999993 196.5 23.199999999999996Q199.9 25.099999999999994 202.2 28.299999999999997Q204.6 25.199999999999996 208.1 23.299999999999997Q212.5 20.999999999999993 217.9 20.999999999999993Q223.3 20.999999999999993 227.60000000000002 23.249999999999993Q231.9 25.499999999999993 234.4 29.699999999999996Q236.9 33.9 236.9 39.699999999999996V70.3H223.8V41.8Q223.8 37.599999999999994 221.15 35.25Q218.5 32.9 214.6 32.9Q212.1 32.9 209.95 33.949999999999996Q207.8 34.99999999999999 206.60000000000002 37.0Q205.4 39.0 205.4 41.8V70.3H192.3V41.8Q192.3 37.599999999999994 189.65 35.25Q187.0 32.9 183.1 32.9Q180.5 32.9 178.4 33.949999999999996Q176.3 34.99999999999999 175.10000000000002 37.0Q173.9 39.0 173.9 41.8V70.3Z M270.20000000000005 71.3Q262.90000000000003 71.3 257.05 67.94999999999999Q251.20000000000002 64.6 247.75 58.849999999999994Q244.3 53.099999999999994 244.3 46.0Q244.3 38.89999999999999 247.70000000000002 33.24999999999999Q251.10000000000002 27.599999999999994 257.0 24.249999999999993Q262.90000000000003 20.89999999999999 270.1 20.89999999999999Q277.5 20.89999999999999 283.35 24.249999999999993Q289.20000000000005 27.599999999999994 292.6 33.24999999999999Q296.0 38.89999999999999 296.0 46.0Q296.0 53.099999999999994 292.6 58.849999999999994Q289.20000000000005 64.6 283.35 67.94999999999999Q277.5 71.3 270.20000000000005 71.3ZM270.1 59.099999999999994Q273.8 59.099999999999994 276.65 57.449999999999996Q279.5 55.8 281.05 52.849999999999994Q282.6 49.89999999999999 282.6 46.099999999999994Q282.6 42.3 281.0 39.39999999999999Q279.40000000000003 36.49999999999999 276.6 34.849999999999994Q273.8 33.199999999999996 270.1 33.199999999999996Q266.5 33.199999999999996 263.70000000000005 34.849999999999994Q260.90000000000003 36.49999999999999 259.30000000000007 39.39999999999999Q257.70000000000005 42.3 257.70000000000005 46.099999999999994Q257.70000000000005 49.89999999999999 259.30000000000007 52.849999999999994Q260.90000000000003 55.8 263.70000000000005 57.449999999999996Q266.5 59.099999999999994 270.1 59.099999999999994Z M321.0 71.39999999999999Q316.90000000000003 71.39999999999999 312.95000000000005 70.3Q309.0 69.2 305.70000000000005 67.25Q302.40000000000003 65.3 300.0 62.5L307.8 54.599999999999994Q310.3 57.4 313.6 58.8Q316.90000000000003 60.199999999999996 320.90000000000003 60.199999999999996Q324.1 60.199999999999996 325.75 59.3Q327.40000000000003 58.4 327.40000000000003 56.599999999999994Q327.40000000000003 54.599999999999994 325.65000000000003 53.49999999999999Q323.90000000000003 52.39999999999999 321.1 51.64999999999999Q318.3 50.89999999999999 315.25 49.949999999999996Q312.20000000000005 49.0 309.40000000000003 47.449999999999996Q306.6 45.89999999999999 304.85 43.14999999999999Q303.1 40.39999999999999 303.1 35.99999999999999Q303.1 31.39999999999999 305.35 27.999999999999993Q307.6 24.599999999999994 311.8 22.699999999999996Q316.0 20.799999999999997 321.70000000000005 20.799999999999997Q327.70000000000005 20.799999999999997 332.55000000000007 22.899999999999995Q337.40000000000003 24.999999999999993 340.6 29.199999999999996L332.70000000000005 37.099999999999994Q330.5 34.4 327.75 33.199999999999996Q325.0 31.999999999999993 321.8 31.999999999999993Q318.90000000000003 31.999999999999993 317.35 32.89999999999999Q315.8 33.8 315.8 35.4Q315.8 37.199999999999996 317.55 38.199999999999996Q319.3 39.199999999999996 322.1 39.949999999999996Q324.90000000000003 40.699999999999996 327.95000000000005 41.64999999999999Q331.0 42.599999999999994 333.75 44.3Q336.5 46.0 338.25 48.8Q340.0 51.599999999999994 340.0 56.0Q340.0 63.099999999999994 334.9 67.25Q329.8 71.39999999999999 321.0 71.39999999999999Z" fill="#00E676" transform="translate(105.70, 13.40)"/>
</svg>